<?xml version="1.0" encoding="UTF-8"?>
<!DOCTYPE svg PUBLIC "-//W3C//DTD SVG 1.1//EN" "http://www.w3.org/Graphics/SVG/1.1/DTD/svg11.dtd">
<svg xmlns="http://www.w3.org/2000/svg" version="1.1" width="461px" height="424px" style="shape-rendering:geometricPrecision; text-rendering:geometricPrecision; image-rendering:optimizeQuality; fill-rule:evenodd; clip-rule:evenodd" xmlns:xlink="http://www.w3.org/1999/xlink">
<g><path style="opacity:0.948" fill="#323232" d="M 218.5,1.5 C 221.044,2.46787 223.211,4.13454 225,6.5C 231.367,18.3072 229.7,28.9739 220,38.5C 207.971,26.6113 207.471,14.2779 218.5,1.5 Z"/></g>
<g><path style="opacity:0.958" fill="#323232" d="M 185.5,28.5 C 188.661,29.4698 191.494,31.1365 194,33.5C 200.819,41.2975 203.152,50.2975 201,60.5C 199.839,64.8302 197.673,68.4968 194.5,71.5C 182.358,64.2126 177.525,53.546 180,39.5C 181.319,35.5277 183.153,31.8611 185.5,28.5 Z"/></g>
<g><path style="opacity:0.948" fill="#323232" d="M 257.5,28.5 C 260.775,29.6139 262.942,31.9473 264,35.5C 269.164,50.6742 265.164,62.6742 252,71.5C 246.798,66.7571 243.965,60.7571 243.5,53.5C 244.298,42.8948 248.965,34.5615 257.5,28.5 Z"/></g>
<g><path style="opacity:0.966" fill="#323232" d="M 139.5,34.5 C 150.742,35.8658 158.242,41.8658 162,52.5C 162.499,56.8206 162.666,61.1539 162.5,65.5C 145.378,62.2758 137.711,51.9424 139.5,34.5 Z"/></g>
<g><path style="opacity:0.943" fill="#333333" d="M 301.5,34.5 C 305.949,34.2556 307.615,36.4223 306.5,41C 305.294,55.254 297.627,63.4207 283.5,65.5C 281.223,50.1577 287.223,39.8243 301.5,34.5 Z"/></g>
<g><path style="opacity:0.939" fill="#323232" d="M 225.5,55.5 C 233.565,67.1826 233.399,78.8493 225,90.5C 222.129,94.0159 218.629,96.6826 214.5,98.5C 206.517,86.8784 206.684,75.2117 215,63.5C 218.299,60.449 221.799,57.7823 225.5,55.5 Z"/></g>
<g><path style="opacity:0.969" fill="#323232" d="M 120.5,66.5 C 141.392,66.3937 152.726,76.727 154.5,97.5C 133.302,98.2039 121.968,87.8705 120.5,66.5 Z"/></g>
<g><path style="opacity:0.951" fill="#333333" d="M 314.5,66.5 C 318.167,66.5 321.833,66.5 325.5,66.5C 324.369,87.9626 313.036,98.2959 291.5,97.5C 291.963,81.7172 299.63,71.3838 314.5,66.5 Z"/></g>
<g><path style="opacity:0.946" fill="#323232" d="M 85.5,74.5 C 99.5706,75.03 108.571,82.03 112.5,95.5C 99.1908,99.453 89.0241,95.453 82,83.5C 80.9207,80.9373 80.4207,78.2706 80.5,75.5C 82.4147,75.7845 84.0813,75.4511 85.5,74.5 Z"/></g>
<g><path style="opacity:0.927" fill="#333333" d="M 354.5,74.5 C 358.654,74.6307 362.654,75.464 366.5,77C 361.611,93.1097 350.945,99.443 334.5,96C 336.027,84.2988 342.693,77.1321 354.5,74.5 Z"/></g>
<g><path style="opacity:0.96" fill="#323232" d="M 167.5,76.5 C 185.867,78.3538 194.7,88.3538 194,106.5C 181.818,104.763 173.152,98.4298 168,87.5C 166.489,83.8203 166.323,80.1536 167.5,76.5 Z"/></g>
<g><path style="opacity:0.941" fill="#333333" d="M 270.5,79.5 C 271.922,79.7496 272.922,80.583 273.5,82C 270.586,99.5673 260.086,108.734 242,109.5C 241.228,109.355 240.561,109.022 240,108.5C 240.081,95.5292 246.247,86.6959 258.5,82C 262.637,81.1606 266.637,80.3272 270.5,79.5 Z"/></g>
<g><path style="opacity:0.955" fill="#323232" d="M 111.5,110.5 C 128.196,108.673 139.862,115.34 146.5,130.5C 146.167,131.167 145.833,131.833 145.5,132.5C 126.557,138.564 112.891,132.564 104.5,114.5C 106.643,112.79 108.977,111.457 111.5,110.5 Z"/></g>
<g><path style="opacity:0.948" fill="#323232" d="M 320.5,110.5 C 324.846,110.334 329.179,110.501 333.5,111C 336.408,111.689 339.075,112.855 341.5,114.5C 332.412,133.915 318.079,139.415 298.5,131C 302.862,120.799 310.195,113.966 320.5,110.5 Z"/></g>
<g><path style="opacity:0.952" fill="#323232" d="M 214.5,113.5 C 223.054,116.219 228.888,121.886 232,130.5C 234.787,139.763 233.62,148.43 228.5,156.5C 211.062,146.436 206.395,132.103 214.5,113.5 Z"/></g>
<g><path style="opacity:0.955" fill="#323232" d="M 159.5,114.5 C 178.271,112.862 189.938,121.028 194.5,139C 178.608,141.804 167.108,135.971 160,121.5C 159.503,119.19 159.337,116.857 159.5,114.5 Z"/></g>
<g><path style="opacity:0.936" fill="#333333" d="M 274.5,114.5 C 278.5,114.5 282.5,114.5 286.5,114.5C 285.875,125.897 280.208,133.73 269.5,138C 263.456,140.522 257.456,140.688 251.5,138.5C 253.766,125.235 261.433,117.235 274.5,114.5 Z"/></g>
<g><path style="opacity:0.958" fill="#323232" d="M 69.5,116.5 C 80.5236,116.728 88.0236,121.728 92,131.5C 82.9484,136.631 73.7817,136.798 64.5,132C 60.9232,129.591 58.2565,126.424 56.5,122.5C 57.7786,120.854 59.4453,119.687 61.5,119C 64.3102,118.218 66.9768,117.384 69.5,116.5 Z"/></g>
<g><path style="opacity:0.942" fill="#333333" d="M 372.5,116.5 C 392.715,118.059 394.382,123.892 377.5,134C 369.46,136.525 361.793,135.691 354.5,131.5C 354.326,127.688 355.993,124.521 359.5,122C 363.561,119.265 367.894,117.432 372.5,116.5 Z"/></g>
<g><path style="opacity:0.955" fill="#323232" d="M 101.5,144.5 C 114.399,142.625 124.733,146.792 132.5,157C 123.623,165.386 113.29,167.719 101.5,164C 95.6655,161.758 90.9989,158.091 87.5,153C 91.7967,149.361 96.4634,146.527 101.5,144.5 Z"/></g>
<g><path style="opacity:0.951" fill="#323232" d="M 330.5,144.5 C 340.776,142.65 349.61,145.316 357,152.5C 357.667,153.5 357.667,154.5 357,155.5C 347.953,165.07 337.119,167.903 324.5,164C 320.124,162.444 316.458,159.944 313.5,156.5C 318.038,150.745 323.705,146.745 330.5,144.5 Z"/></g>
<g><path style="opacity:0.959" fill="#323232" d="M 158.5,149.5 C 176.673,148.247 189.673,155.747 197.5,172C 181.732,178.347 167.565,175.847 155,164.5C 152.329,161.163 150.163,157.496 148.5,153.5C 151.688,151.554 155.021,150.221 158.5,149.5 Z"/></g>
<g><path style="opacity:0.941" fill="#333333" d="M 276.5,149.5 C 283.947,148.808 290.947,150.141 297.5,153.5C 289.793,170.024 276.793,177.191 258.5,175C 254.821,174.719 251.488,173.552 248.5,171.5C 254.066,159.257 263.399,151.924 276.5,149.5 Z"/></g>
<g><path style="opacity:0.939" fill="#323232" d="M 75.5,170.5 C 84.559,168.759 92.2256,171.092 98.5,177.5C 90.1526,188.708 79.4859,191.541 66.5,186C 64.4148,184.959 62.7481,183.459 61.5,181.5C 65.0614,176.255 69.7281,172.588 75.5,170.5 Z"/></g>
<g><path style="opacity:0.948" fill="#323232" d="M 357.5,170.5 C 368.923,168.884 377.923,172.717 384.5,182C 376.095,189.039 366.762,190.373 356.5,186C 352.821,183.654 349.821,180.654 347.5,177C 350.391,174.061 353.724,171.894 357.5,170.5 Z"/></g>
<g><path style="opacity:0.937" fill="#323232" d="M 219.5,171.5 C 230.649,171.148 235.816,176.481 235,187.5C 232.034,195.055 226.534,197.888 218.5,196C 210.977,191.767 208.811,185.6 212,177.5C 214.134,174.847 216.634,172.847 219.5,171.5 Z"/></g>
<g><path style="opacity:0.946" fill="#323232" d="M 131.5,175.5 C 141.647,174.548 150.314,177.548 157.5,184.5C 148.637,196.473 136.97,200.307 122.5,196C 117.561,194.71 114.394,191.877 113,187.5C 117.652,181.095 123.818,177.095 131.5,175.5 Z"/></g>
<g><path style="opacity:0.956" fill="#323232" d="M 303.5,175.5 C 316.153,174.33 326.153,178.83 333.5,189C 323.89,197.84 312.89,199.84 300.5,195C 295.734,192.403 291.734,188.903 288.5,184.5C 292.775,180.2 297.775,177.2 303.5,175.5 Z"/></g>
<g><path style="opacity:0.975" fill="#323232" d="M 176.5,187.5 C 194.775,192.721 210.275,202.387 223,216.5C 235.288,202.939 250.121,193.272 267.5,187.5C 271.149,188.539 272.316,190.872 271,194.5C 247.1,210.326 237.267,232.659 241.5,261.5C 240.896,277.796 242.729,293.796 247,309.5C 250.71,320.104 257.543,327.937 267.5,333C 260.433,333.839 253.433,333.506 246.5,332C 238.223,329.444 230.389,325.944 223,321.5C 214.506,326.827 205.339,330.661 195.5,333C 190.136,333.829 184.802,333.663 179.5,332.5C 194.359,321.792 202.192,307.126 203,288.5C 205.3,268.782 204.966,249.115 202,229.5C 199.744,220.317 195.41,212.317 189,205.5C 184,201.5 179,197.5 174,193.5C 173.458,190.918 174.292,188.918 176.5,187.5 Z"/></g>
<g><path style="opacity:0.939" fill="#323232" d="M 153.5,206.5 C 157.182,206.335 160.848,206.501 164.5,207C 165.624,207.249 166.624,207.749 167.5,208.5C 162.982,224.098 152.649,230.598 136.5,228C 135.292,223.853 136.126,220.02 139,216.5C 142.689,211.28 147.522,207.947 153.5,206.5 Z"/></g>
<g><path style="opacity:0.957" fill="#323232" d="M 281.5,206.5 C 293.785,205.225 302.952,209.892 309,220.5C 310.15,222.754 310.484,225.087 310,227.5C 293.692,230.764 283.192,224.431 278.5,208.5C 279.602,207.824 280.602,207.158 281.5,206.5 Z"/></g>
<g><path style="opacity:0.888" fill="#323232" d="M 322.5,356.5 C 342.801,354.384 355.634,363.05 361,382.5C 363.276,410.47 350.443,423.637 322.5,422C 308,419.5 299.5,411 297,396.5C 294.257,375.592 302.757,362.259 322.5,356.5 Z M 323.5,365.5 C 340.51,364.508 349.843,372.508 351.5,389.5C 348.242,410.794 336.575,417.627 316.5,410C 304.41,397.992 303.41,384.992 313.5,371C 316.767,368.87 320.1,367.037 323.5,365.5 Z"/></g>
<g><path style="opacity:0.824" fill="#323232" d="M 1.5,357.5 C 4.51838,357.335 7.51838,357.502 10.5,358C 22.4546,373.41 34.2879,388.91 46,404.5C 46.4999,388.837 46.6666,373.17 46.5,357.5C 49.5,357.5 52.5,357.5 55.5,357.5C 55.5,378.833 55.5,400.167 55.5,421.5C 51.3966,422.231 47.8966,421.231 45,418.5C 34,404.167 23,389.833 12,375.5C 11.5001,390.83 11.3334,406.163 11.5,421.5C 8.16667,421.5 4.83333,421.5 1.5,421.5C 1.5,400.167 1.5,378.833 1.5,357.5 Z"/></g>
<g><path style="opacity:0.819" fill="#323232" d="M 119.5,361.5 C 121.833,361.5 124.167,361.5 126.5,361.5C 126.5,366.5 126.5,371.5 126.5,376.5C 130.833,376.5 135.167,376.5 139.5,376.5C 139.5,378.833 139.5,381.167 139.5,383.5C 135.167,383.5 130.833,383.5 126.5,383.5C 126.334,393.172 126.5,402.839 127,412.5C 127.775,414.223 129.108,415.223 131,415.5C 135.39,412.125 138.557,412.958 140.5,418C 134.836,422.633 128.503,423.633 121.5,421C 119.951,419.786 118.785,418.286 118,416.5C 116.594,405.564 116.094,394.564 116.5,383.5C 110.5,384.833 108.167,382.5 109.5,376.5C 112.167,376.5 114.833,376.5 117.5,376.5C 117.762,371.405 118.428,366.405 119.5,361.5 Z"/></g>
<g><path style="opacity:0.867" fill="#323232" d="M 81.5,375.5 C 87.5629,374.838 93.2296,376.004 98.5,379C 100.041,380.579 101.208,382.413 102,384.5C 103.439,396.758 103.939,409.091 103.5,421.5C 101.143,421.663 98.8098,421.497 96.5,421C 95.7734,419.601 95.2734,418.101 95,416.5C 86.1808,423.929 77.1808,424.262 68,417.5C 64.2987,404.833 69.1321,397.667 82.5,396C 86.4862,395.501 90.4862,395.334 94.5,395.5C 95.3166,386.485 91.3166,382.319 82.5,383C 79.3939,384.636 76.2272,386.136 73,387.5C 67.9861,385.689 67.4861,383.189 71.5,380C 74.8153,378.17 78.1486,376.67 81.5,375.5 Z M 91.5,400.5 C 92.5,400.5 93.5,400.5 94.5,400.5C 95.7455,409.596 91.7455,414.596 82.5,415.5C 76.918,415.011 74.7514,412.011 76,406.5C 76.8333,405.667 77.6667,404.833 78.5,404C 82.8602,402.417 87.1936,401.25 91.5,400.5 Z"/></g>
<g><path style="opacity:0.864" fill="#323232" d="M 216.5,375.5 C 220.215,375.423 223.881,375.756 227.5,376.5C 227.38,379.48 226.713,382.313 225.5,385C 217.14,382.596 211.307,385.43 208,393.5C 207.5,402.827 207.334,412.161 207.5,421.5C 204.5,421.5 201.5,421.5 198.5,421.5C 198.5,406.5 198.5,391.5 198.5,376.5C 201.167,376.5 203.833,376.5 206.5,376.5C 206.201,378.604 206.534,380.604 207.5,382.5C 210.023,379.422 213.023,377.089 216.5,375.5 Z"/></g>
<g><path style="opacity:0.895" fill="#323232" d="M 247.5,375.5 C 264.57,373.909 272.903,381.575 272.5,398.5C 261.833,398.5 251.167,398.5 240.5,398.5C 240.242,408.354 244.909,414.021 254.5,415.5C 259.145,414.679 263.479,413.012 267.5,410.5C 269.64,411.473 271.307,412.973 272.5,415C 261.352,424.164 249.685,424.831 237.5,417C 231.815,409.062 229.981,400.229 232,390.5C 234.446,382.552 239.613,377.552 247.5,375.5 Z M 250.5,382.5 C 258.333,381.905 262.999,385.405 264.5,393C 256.5,393.667 248.5,393.667 240.5,393C 242.017,387.652 245.351,384.152 250.5,382.5 Z"/></g>
<g><path style="opacity:0.801" fill="#323232" d="M 389.5,375.5 C 398.311,373.964 404.811,376.964 409,384.5C 410.418,396.772 410.918,409.105 410.5,421.5C 407.167,421.5 403.833,421.5 400.5,421.5C 400.667,410.495 400.5,399.495 400,388.5C 396.142,381.993 390.975,380.827 384.5,385C 383.333,386.167 382.167,387.333 381,388.5C 380.5,399.495 380.333,410.495 380.5,421.5C 377.167,421.5 373.833,421.5 370.5,421.5C 370.5,406.5 370.5,391.5 370.5,376.5C 373.187,376.336 375.854,376.503 378.5,377C 379.227,378.399 379.727,379.899 380,381.5C 382.843,378.837 386.009,376.837 389.5,375.5 Z"/></g>
<g><path style="opacity:0.878" fill="#323232" d="M 434.5,375.5 C 451.5,373.836 459.833,381.502 459.5,398.5C 448.833,398.5 438.167,398.5 427.5,398.5C 429.99,415.844 438.823,419.844 454,410.5C 456.167,411.333 457.667,412.833 458.5,415C 456.968,417.117 454.968,418.784 452.5,420C 428.311,426.662 416.811,417.495 418,392.5C 420.358,383.643 425.858,377.977 434.5,375.5 Z M 436.5,382.5 C 444.747,381.758 449.414,385.424 450.5,393.5C 442.833,393.5 435.167,393.5 427.5,393.5C 428.392,388.021 431.392,384.355 436.5,382.5 Z"/></g>
<g><path style="opacity:0.8" fill="#323232" d="M 146.5,376.5 C 149.833,376.5 153.167,376.5 156.5,376.5C 156.333,387.505 156.5,398.505 157,409.5C 160.858,416.007 166.025,417.173 172.5,413C 173.667,411.833 174.833,410.667 176,409.5C 176.5,398.505 176.667,387.505 176.5,376.5C 179.833,376.5 183.167,376.5 186.5,376.5C 186.5,391.5 186.5,406.5 186.5,421.5C 183.813,421.664 181.146,421.497 178.5,421C 177.773,419.601 177.273,418.101 177,416.5C 168.803,423.634 160.137,424.3 151,418.5C 148.854,415.874 147.521,412.874 147,409.5C 146.5,398.505 146.333,387.505 146.5,376.5 Z"/></g>
</svg>
